<?xml version="1.0" encoding="UTF-8"?><!--
  - (c) Meta Platforms, Inc. and affiliates. Confidential and proprietary.
  -->

<svg id="Layer_1" xmlns="http://www.w3.org/2000/svg" viewBox="0 0 38.58 15.25"><defs><style>.cls-1{fill:#dbe4eb;stroke-width:0px;}</style></defs><path class="cls-1" d="M36.99.83c-1.63-.36-3.28-.61-4.94-.74-1.58-.11-3.15-.12-4.73,0-1.83.12-3.62.44-5.35,1.04-1.63.55-3.28.62-4.94.11-.77-.23-1.53-.49-2.31-.66C12.85.13,10.95,0,9.04,0,6.65,0,4.29.25,1.95.73c-.52.11-1.01.27-1.39.67C.11,1.87-.02,2.45,0,3.07c.03.69.1,1.37.15,2.07.06.97.51,1.69,1.42,2.09.06.02.11.09.13.15.28,1.13.58,2.26.84,3.41.44,1.93,1.6,3.2,3.49,3.8.9.28,1.81.47,2.75.56,1.42.14,2.84.14,4.24-.15,1.71-.35,3.16-1.15,4.28-2.5.77-.94,1.33-2.01,1.82-3.11.07-.15.13-.29.21-.47.04.1.06.16.09.22.36.91.78,1.8,1.33,2.6.82,1.21,1.88,2.18,3.23,2.77.95.42,1.96.6,2.99.66,1.81.12,3.6-.02,5.35-.52,1.93-.56,3.2-1.79,3.7-3.77.3-1.16.58-2.31.87-3.48.02-.1.06-.15.16-.2.76-.31,1.21-.87,1.34-1.67.16-.94.23-1.88.19-2.83-.04-.95-.67-1.69-1.59-1.9ZM36.94,5.18c-.03.41-.23.61-.62.7-.43.1-.68.36-.78.78-.31,1.23-.63,2.47-.91,3.7-.34,1.5-1.24,2.44-2.69,2.86-1.52.43-3.07.57-4.65.49-.72-.04-1.42-.11-2.11-.33-1.42-.46-2.47-1.37-3.28-2.61-.58-.91-.98-1.9-1.36-2.9-.13-.36-.26-.73-.4-1.08-.2-.52-.62-.71-1.16-.54-.28.09-.4.3-.49.57-.21.6-.41,1.21-.65,1.8-.35.87-.79,1.69-1.33,2.47-.93,1.37-2.24,2.18-3.86,2.48-1.31.24-2.63.25-3.94.07-.71-.1-1.42-.24-2.1-.43-1.46-.39-2.3-1.33-2.63-2.81-.27-1.25-.61-2.5-.92-3.74-.1-.41-.33-.68-.77-.77-.41-.09-.61-.33-.66-.77-.06-.67-.11-1.34-.14-2.01-.03-.65.08-.77.71-.91,2.15-.44,4.33-.69,6.46-.7,1.63,0,3.21.08,4.77.33.88.15,1.75.34,2.59.65,2.18.8,4.34.76,6.52.02,1.47-.5,2.99-.78,4.54-.91,1.58-.14,3.15-.12,4.73-.02,1.62.11,3.21.36,4.79.7.33.07.49.26.48.6-.04.77-.08,1.54-.15,2.31Z"/><path class="cls-1" d="M5.49,4.08c0,.61-.49,1.11-1.1,1.11s-1.12-.49-1.12-1.11.49-1.11,1.12-1.11,1.1.49,1.1,1.11Z"/></svg>