<!--
  - (c) Meta Platforms, Inc. and affiliates. Confidential and proprietary.
  -->

<svg width="32" height="32" viewBox="0 0 32 32" fill="none" xmlns="http://www.w3.org/2000/svg">
<rect x="3" y="6.3335" width="26" height="19.3333" rx="3" stroke="#DBE4EB" stroke-width="2"/>
<path d="M15.3337 20.6668H8.85821V19.2765L11.8417 16.1679C12.5762 15.3374 12.945 14.6783 12.945 14.1893C12.945 13.7936 12.8585 13.4927 12.684 13.285C12.5095 13.0789 12.2576 12.9751 11.9252 12.9751C11.5929 12.9751 11.3318 13.1135 11.1285 13.3888C10.9251 13.6642 10.8219 14.0088 10.8219 14.4225H8.66699C8.66699 13.8583 8.80964 13.3362 9.09343 12.8592C9.37873 12.3807 9.7733 12.0076 10.2786 11.7382C10.784 11.4689 11.35 11.3335 11.9738 11.3335C12.9769 11.3335 13.7493 11.5637 14.2911 12.0226C14.8329 12.4815 15.103 13.1406 15.103 14.0012C15.103 14.3639 15.0347 14.7159 14.8996 15.059C14.7631 15.4021 14.5521 15.7632 14.2653 16.1393C13.9785 16.517 13.5171 17.0211 12.8798 17.653L11.6809 19.0238H15.3337V20.6668Z" fill="#DBE4EB"/>
<path d="M16.67 20.6668V11.3335H19.676C20.5 11.3335 21.2416 11.5212 21.8992 11.8936C22.5569 12.2676 23.0711 12.7957 23.4403 13.4764C23.8096 14.1587 23.9973 14.9218 24.0003 15.7674V16.1963C24.0003 17.051 23.8203 17.8172 23.4586 18.4949C23.097 19.1726 22.5889 19.7022 21.9328 20.0853C21.2766 20.4684 20.5458 20.6607 19.737 20.6653H16.667L16.67 20.6668ZM18.9192 13.0704V18.936H19.7004C20.3459 18.936 20.8418 18.7071 21.1866 18.2476C21.533 17.7882 21.7054 17.106 21.7054 16.1993V15.7949C21.7054 14.8928 21.533 14.2136 21.1866 13.7557C20.8402 13.2978 20.3367 13.0704 19.6745 13.0704H18.9177H18.9192Z" fill="#DBE4EB"/>
</svg>
