<!--
  - (c) Meta Platforms, Inc. and affiliates. Confidential and proprietary.
  -->

<svg width="32" height="32" viewBox="0 0 32 32" fill="none" xmlns="http://www.w3.org/2000/svg">
<ellipse cx="12.1052" cy="11.9928" rx="1.77028" ry="1.85512" fill="#DBE4EB"/>
<path d="M15.9997 29.2378C15.5678 29.2378 15.1429 29.1339 14.7534 28.9335L6.25609 24.5629C5.29306 24.0657 4.66992 23.0194 4.66992 21.8989V9.05407C4.66992 8.53464 4.95317 8.05231 5.39928 7.8297L14.7534 3.02123C15.5324 2.62053 16.4671 2.62053 17.2531 3.02123L25.7504 7.39189C26.7276 7.89648 27.3366 8.91309 27.3366 10.0558V21.8989C27.3366 23.0194 26.7135 24.0657 25.7504 24.5629L17.2531 28.9335C16.8636 29.1339 16.4317 29.2378 16.0068 29.2378H15.9997ZM6.22777 9.22475V21.9063C6.22777 22.4109 6.51101 22.8858 6.94296 23.1084L15.4403 27.4791C15.7944 27.6572 16.2121 27.6572 16.5662 27.4791L25.0635 23.1084C25.4955 22.8858 25.7787 22.4183 25.7787 21.9063V10.0633C25.7787 9.55867 25.4955 9.08376 25.0635 8.86114L16.5662 4.49049C16.2121 4.31239 15.7944 4.31239 15.4403 4.49049L6.22777 9.22475Z" fill="#DBE4EB"/>
<path d="M20.9995 14.8047L23.5062 17.2461C23.7328 17.4613 23.8602 17.7729 23.8602 18.092V20.5185C23.8602 21.127 23.5274 21.6909 23.0034 21.9581L16.68 25.2157C16.2551 25.4308 15.7594 25.4308 15.3346 25.2157L9.01111 21.9581C8.48711 21.6909 8.1543 21.1344 8.1543 20.5185V19.91C8.1543 19.5761 8.29592 19.257 8.53668 19.0418L11.6028 16.2666C11.9852 15.9178 12.5446 15.8955 12.9553 16.1998L15.2567 17.9065C15.6957 18.233 16.2905 18.181 16.6658 17.7803L19.4841 14.8418C19.9019 14.404 20.5746 14.3966 21.0065 14.8122L20.9995 14.8047Z" fill="#DBE4EB"/>
</svg>
