<!--
  - (c) Meta Platforms, Inc. and affiliates. Confidential and proprietary.
  -->

<svg width="24" height="24" viewBox="0 0 24 24" fill="none" xmlns="http://www.w3.org/2000/svg">
<path d="M17.7044 11.383L12.7086 6.38499C12.6135 6.29399 12.5015 6.22266 12.3788 6.17508C12.1356 6.0751 11.8627 6.0751 11.6195 6.17508C11.4968 6.22266 11.3848 6.29399 11.2897 6.38499L6.29385 11.383C6.20069 11.4762 6.12679 11.5868 6.07637 11.7086C6.02595 11.8303 6 11.9609 6 12.0927C6 12.3589 6.1057 12.6141 6.29385 12.8024C6.482 12.9906 6.73718 13.0963 7.00327 13.0963C7.26935 13.0963 7.52453 12.9906 7.71268 12.8024L11 9.50372V17.0906C11 17.3557 11.1052 17.61 11.2926 17.7974C11.48 17.9849 11.7341 18.0902 11.9991 18.0902C12.2641 18.0902 12.5183 17.9849 12.7057 17.7974C12.8931 17.61 12.9983 17.3557 12.9983 17.0906V9.50372L16.2856 12.8024C16.3785 12.8961 16.489 12.9704 16.6108 13.0212C16.7325 13.0719 16.8631 13.0981 16.995 13.0981C17.1269 13.0981 17.2575 13.0719 17.3793 13.0212C17.501 12.9704 17.6116 12.8961 17.7044 12.8024C17.7981 12.7095 17.8724 12.5989 17.9232 12.4771C17.9739 12.3553 18 12.2246 18 12.0927C18 11.9607 17.9739 11.8301 17.9232 11.7082C17.8724 11.5864 17.7981 11.4759 17.7044 11.383Z" fill="#DBE4EB"/>
</svg>
