<!--
  - (c) Meta Platforms, Inc. and affiliates. Confidential and proprietary.
  -->

<svg width="32" height="32" viewBox="0 0 32 32" fill="none" xmlns="http://www.w3.org/2000/svg">
<path d="M7.21536 13.8335C6.636 13.8335 6.16634 13.3638 6.16634 12.7845V7.21585C6.16634 6.63649 6.636 6.16683 7.21536 6.16683H12.784C13.3633 6.16683 13.833 6.63649 13.833 7.21585V12.7845C13.833 13.3638 13.3633 13.8335 12.784 13.8335H7.21536ZM7.21536 25.8335C6.636 25.8335 6.16634 25.3638 6.16634 24.7845V19.2158C6.16634 18.6365 6.636 18.1668 7.21536 18.1668H12.784C13.3633 18.1668 13.833 18.6365 13.833 19.2158V24.7845C13.833 25.3638 13.3633 25.8335 12.784 25.8335H7.21536ZM19.2154 13.8335C18.636 13.8335 18.1663 13.3638 18.1663 12.7845V7.21585C18.1663 6.63649 18.636 6.16683 19.2154 6.16683H24.784C25.3633 6.16683 25.833 6.63649 25.833 7.21585V12.7845C25.833 13.3638 25.3633 13.8335 24.784 13.8335H19.2154ZM19.2154 25.8335C18.636 25.8335 18.1663 25.3638 18.1663 24.7845V19.2158C18.1663 18.6365 18.636 18.1668 19.2154 18.1668H24.784C25.3633 18.1668 25.833 18.6365 25.833 19.2158V24.7845C25.833 25.3638 25.3633 25.8335 24.784 25.8335H19.2154Z" stroke="#DBE4EB" stroke-width="1.66667"/>
</svg>
