<!--
  - (c) Meta Platforms, Inc. and affiliates. Confidential and proprietary.
  -->

<svg width="14" height="15" viewBox="0 0 24 25" fill="none" xmlns="http://www.w3.org/2000/svg">
<path fill-rule="evenodd" clip-rule="evenodd" d="M11.5021 9.43321C11.5021 9.84899 11.3442 10.2478 11.0629 10.5418C10.7817 10.8358 10.4003 11.0009 10.0026 11.0009C9.60486 11.0009 9.22344 10.8358 8.94221 10.5418C8.66099 10.2478 8.503 9.84899 8.503 9.43321C8.503 9.01742 8.66099 8.61866 8.94221 8.32465C9.22344 8.03064 9.60486 7.86547 10.0026 7.86547C10.4003 7.86547 10.7817 8.03064 11.0629 8.32465C11.3442 8.61866 11.5021 9.01742 11.5021 9.43321ZM12.9067 10.2171C12.74 10.8897 12.3643 11.4854 11.8387 11.9106C11.313 12.3359 10.6672 12.5666 10.0026 12.5666C9.33793 12.5666 8.69211 12.3359 8.16648 11.9106C7.64085 11.4854 7.26516 10.8897 7.0984 10.2171H5.75079C5.55193 10.2171 5.36122 10.1345 5.22061 9.98748C5.07999 9.84048 5.001 9.6411 5.001 9.43321C5.001 9.22531 5.07999 9.02593 5.22061 8.87893C5.36122 8.73192 5.55193 8.64934 5.75079 8.64934H7.0984C7.26516 7.97672 7.64085 7.38103 8.16648 6.95578C8.69211 6.53054 9.33793 6.2998 10.0026 6.2998C10.6672 6.2998 11.313 6.53054 11.8387 6.95578C12.3643 7.38103 12.74 7.97672 12.9067 8.64934H18.2502C18.4491 8.64934 18.6398 8.73192 18.7804 8.87893C18.921 9.02593 19 9.22531 19 9.43321C19 9.6411 18.921 9.84048 18.7804 9.98748C18.6398 10.1345 18.4491 10.2171 18.2502 10.2171H12.9067ZM5.75079 14.9203H11.0943C11.2607 14.2472 11.6363 13.651 12.162 13.2253C12.6878 12.7997 13.334 12.5687 13.9989 12.5687C14.6639 12.5687 15.31 12.7997 15.8358 13.2253C16.3616 13.651 16.7372 14.2472 16.9036 14.9203H18.2502C18.4491 14.9203 18.6398 15.0029 18.7804 15.1499C18.921 15.2969 19 15.4962 19 15.7041C19 15.912 18.921 16.1114 18.7804 16.2584C18.6398 16.4054 18.4491 16.488 18.2502 16.488H16.9036C16.7368 17.1606 16.3612 17.7563 15.8355 18.1816C15.3099 18.6068 14.6641 18.8375 13.9994 18.8375C13.3348 18.8375 12.689 18.6068 12.1633 18.1816C11.6377 17.7563 11.262 17.1606 11.0953 16.488H5.74979C5.55093 16.488 5.36022 16.4054 5.21961 16.2584C5.079 16.1114 5 15.912 5 15.7041C5 15.4962 5.079 15.2969 5.21961 15.1499C5.36022 15.0029 5.55193 14.9203 5.75079 14.9203ZM13.9974 14.1364C13.8005 14.1364 13.6055 14.177 13.4236 14.2557C13.2416 14.3345 13.0763 14.45 12.9371 14.5956C12.7978 14.7412 12.6874 14.914 12.612 15.1042C12.5366 15.2944 12.4979 15.4983 12.4979 15.7041C12.4979 15.91 12.5366 16.1139 12.612 16.3041C12.6874 16.4943 12.7978 16.6671 12.9371 16.8127C13.0763 16.9583 13.2416 17.0738 13.4236 17.1525C13.6055 17.2313 13.8005 17.2719 13.9974 17.2719C14.3951 17.2719 14.7766 17.1067 15.0578 16.8127C15.339 16.5187 15.497 16.1199 15.497 15.7041C15.497 15.2884 15.339 14.8896 15.0578 14.5956C14.7766 14.3016 14.3951 14.1364 13.9974 14.1364Z" fill="#DBE4EB"/>
</svg>
