<!--
  - (c) Meta Platforms, Inc. and affiliates. Confidential and proprietary.
  -->

<svg width="32" height="32" viewBox="0 0 32 32" fill="none" xmlns="http://www.w3.org/2000/svg">
<path d="M8.85714 18.8156C8.85714 18.4705 8.57732 18.1906 8.23214 18.1906H6.625C6.27982 18.1906 6 18.4705 6 18.8156V24.7085C6 25.0537 6.27982 25.3335 6.625 25.3335H12.5179C12.863 25.3335 13.1429 25.0537 13.1429 24.7085V23.1014C13.1429 22.7562 12.863 22.4764 12.5179 22.4764H9.48214C9.13696 22.4764 8.85714 22.1965 8.85714 21.8514V18.8156ZM6 11.8514C6 12.1965 6.27982 12.4764 6.625 12.4764H8.23214C8.57732 12.4764 8.85714 12.1965 8.85714 11.8514V8.81564C8.85714 8.47046 9.13697 8.19064 9.48214 8.19064H12.5179C12.863 8.19064 13.1429 7.91082 13.1429 7.56564V5.9585C13.1429 5.61332 12.863 5.3335 12.5179 5.3335H6.625C6.27982 5.3335 6 5.61332 6 5.9585V11.8514ZM23.1429 21.8514C23.1429 22.1965 22.863 22.4764 22.5179 22.4764H19.4821C19.137 22.4764 18.8571 22.7562 18.8571 23.1014V24.7085C18.8571 25.0537 19.137 25.3335 19.4821 25.3335H25.375C25.7202 25.3335 26 25.0537 26 24.7085V18.8156C26 18.4705 25.7202 18.1906 25.375 18.1906H23.7679C23.4227 18.1906 23.1429 18.4705 23.1429 18.8156V21.8514ZM19.4821 5.3335C19.137 5.3335 18.8571 5.61332 18.8571 5.9585V7.56564C18.8571 7.91082 19.137 8.19064 19.4821 8.19064H22.5179C22.863 8.19064 23.1429 8.47046 23.1429 8.81564V11.8514C23.1429 12.1965 23.4227 12.4764 23.7679 12.4764H25.375C25.7202 12.4764 26 12.1965 26 11.8514V5.9585C26 5.61332 25.7202 5.3335 25.375 5.3335H19.4821Z" fill="#DBE4EB"/>
</svg>
