<!--
  - (c) Meta Platforms, Inc. and affiliates. Confidential and proprietary.
  -->

<svg width="32" height="32" viewBox="0 0 32 32" fill="none" xmlns="http://www.w3.org/2000/svg">
<circle cx="16" cy="16" r="11.125" stroke="#DBE4EB" stroke-width="1.75"/>
<path d="M16.0004 27.125C14.979 27.125 13.7871 26.2123 12.799 24.1127C11.8433 22.0817 11.2283 19.2144 11.2283 16C11.2283 12.7856 11.8433 9.91829 12.799 7.88729C13.7871 5.78768 14.979 4.875 16.0004 4.875C17.0218 4.875 18.2137 5.78768 19.2018 7.88729C20.1575 9.91829 20.7725 12.7856 20.7725 16C20.7725 19.2144 20.1575 22.0817 19.2018 24.1127C18.2137 26.2123 17.0218 27.125 16.0004 27.125Z" stroke="#DBE4EB" stroke-width="1.75"/>
<path d="M4.875 15.9999C4.875 14.9785 5.78768 13.7866 7.88729 12.7986C9.91829 11.8428 12.7856 11.2279 16 11.2279C19.2144 11.2279 22.0817 11.8428 24.1127 12.7986C26.2123 13.7866 27.125 14.9785 27.125 15.9999C27.125 17.0213 26.2123 18.2132 24.1127 19.2013C22.0817 20.157 19.2144 20.772 16 20.772C12.7856 20.772 9.91829 20.157 7.88729 19.2013C5.78768 18.2132 4.875 17.0213 4.875 15.9999Z" stroke="#DBE4EB" stroke-width="1.75"/>
</svg>
