{
  "accessors": [
    {
      "bufferView": 0,
      "componentType": 5123,
      "count": 738,
      "type": "SCALAR"
    },
    {
      "bufferView": 1,
      "componentType": 5126,
      "count": 254,
      "max": [
        0.2095104604959488,
        0.43943390250205994,
        -0.019178299233317375
      ],
      "min": [
        -0.20534729957580566,
        -0.45157554745674133,
        -0.024645572528243065
      ],
      "type": "VEC3"
    },
    {
      "bufferView": 2,
      "componentType": 5126,
      "count": 254,
      "type": "VEC3"
    },
    {
      "bufferView": 3,
      "componentType": 5126,
      "count": 254,
      "type": "VEC2"
    },
    {
      "bufferView": 4,
      "componentType": 5126,
      "count": 254,
      "type": "VEC2"
    },
    {
      "bufferView": 5,
      "componentType": 5123,
      "count": 254,
      "type": "VEC4"
    },
    {
      "bufferView": 6,
      "componentType": 5126,
      "count": 254,
      "type": "VEC4"
    },
    {
      "bufferView": 7,
      "componentType": 5123,
      "count": 4890,
      "type": "SCALAR"
    },
    {
      "bufferView": 8,
      "componentType": 5126,
      "count": 1297,
      "max": [
        0.21323262155056,
        0.44421055912971497,
        -0.007819758728146553
      ],
      "min": [
        -0.20917733013629913,
        -0.45691725611686707,
        -0.032289426773786545
      ],
      "type": "VEC3"
    },
    {
      "bufferView": 9,
      "componentType": 5126,
      "count": 1297,
      "type": "VEC3"
    },
    {
      "bufferView": 10,
      "componentType": 5126,
      "count": 1297,
      "type": "VEC2"
    },
    {
      "bufferView": 11,
      "componentType": 5126,
      "count": 1297,
      "type": "VEC2"
    },
    {
      "bufferView": 12,
      "componentType": 5123,
      "count": 1297,
      "type": "VEC4"
    },
    {
      "bufferView": 13,
      "componentType": 5126,
      "count": 1297,
      "type": "VEC4"
    },
    {
      "bufferView": 14,
      "componentType": 5123,
      "count": 132,
      "type": "SCALAR"
    },
    {
      "bufferView": 15,
      "componentType": 5126,
      "count": 48,
      "max": [
        0.01506899856030941,
        -0.4542401432991028,
        0.01158137060701847
      ],
      "min": [
        -0.12818680703639984,
        -0.4547119736671448,
        -0.013047585263848305
      ],
      "type": "VEC3"
    },
    {
      "bufferView": 16,
      "componentType": 5126,
      "count": 48,
      "type": "VEC3"
    },
    {
      "bufferView": 17,
      "componentType": 5126,
      "count": 48,
      "type": "VEC2"
    },
    {
      "bufferView": 18,
      "componentType": 5126,
      "count": 48,
      "type": "VEC2"
    },
    {
      "bufferView": 19,
      "componentType": 5123,
      "count": 48,
      "type": "VEC4"
    },
    {
      "bufferView": 20,
      "componentType": 5126,
      "count": 48,
      "type": "VEC4"
    },
    {
      "bufferView": 21,
      "componentType": 5123,
      "count": 636,
      "type": "SCALAR"
    },
    {
      "bufferView": 22,
      "componentType": 5126,
      "count": 252,
      "max": [
        0.19541870057582855,
        0.42566293478012085,
        0.014825940132141113
      ],
      "min": [
        -0.19136327505111694,
        -0.43875086307525635,
        0.012759091332554817
      ],
      "type": "VEC3"
    },
    {
      "bufferView": 23,
      "componentType": 5126,
      "count": 252,
      "type": "VEC3"
    },
    {
      "bufferView": 24,
      "componentType": 5126,
      "count": 252,
      "type": "VEC2"
    },
    {
      "bufferView": 25,
      "componentType": 5126,
      "count": 252,
      "type": "VEC2"
    },
    {
      "bufferView": 26,
      "componentType": 5123,
      "count": 252,
      "type": "VEC4"
    },
    {
      "bufferView": 27,
      "componentType": 5126,
      "count": 252,
      "type": "VEC4"
    },
    {
      "bufferView": 28,
      "componentType": 5123,
      "count": 270,
      "type": "SCALAR"
    },
    {
      "bufferView": 29,
      "componentType": 5126,
      "count": 96,
      "max": [
        0.009810535237193108,
        0.4230126440525055,
        0.014081329107284546
      ],
      "min": [
        -0.1511530727148056,
        0.2564082145690918,
        -0.0309415552765131
      ],
      "type": "VEC3"
    },
    {
      "bufferView": 30,
      "componentType": 5126,
      "count": 96,
      "type": "VEC3"
    },
    {
      "bufferView": 31,
      "componentType": 5126,
      "count": 96,
      "type": "VEC2"
    },
    {
      "bufferView": 32,
      "componentType": 5126,
      "count": 96,
      "type": "VEC2"
    },
    {
      "bufferView": 33,
      "componentType": 5123,
      "count": 96,
      "type": "VEC4"
    },
    {
      "bufferView": 34,
      "componentType": 5126,
      "count": 96,
      "type": "VEC4"
    },
    {
      "bufferView": 35,
      "componentType": 5123,
      "count": 18141,
      "type": "SCALAR"
    },
    {
      "bufferView": 36,
      "componentType": 5126,
      "count": 5500,
      "max": [
        0.21622490882873535,
        0.4472030997276306,
        0.0199777539819479
      ],
      "min": [
        -0.21216951310634613,
        -0.459909588098526,
        -0.028196776285767555
      ],
      "type": "VEC3"
    },
    {
      "bufferView": 37,
      "componentType": 5126,
      "count": 5500,
      "type": "VEC3"
    },
    {
      "bufferView": 38,
      "componentType": 5126,
      "count": 5500,
      "type": "VEC2"
    },
    {
      "bufferView": 39,
      "componentType": 5126,
      "count": 5500,
      "type": "VEC2"
    },
    {
      "bufferView": 40,
      "componentType": 5123,
      "count": 5500,
      "type": "VEC4"
    },
    {
      "bufferView": 41,
      "componentType": 5126,
      "count": 5500,
      "type": "VEC4"
    },
    {
      "bufferView": 42,
      "componentType": 5123,
      "count": 10764,
      "type": "SCALAR"
    },
    {
      "bufferView": 43,
      "componentType": 5126,
      "count": 3592,
      "max": [
        0.21746096014976501,
        0.4472030997276306,
        0.0199777539819479
      ],
      "min": [
        -0.21403829753398895,
        -0.459909588098526,
        -0.02215447835624218
      ],
      "type": "VEC3"
    },
    {
      "bufferView": 44,
      "componentType": 5126,
      "count": 3592,
      "type": "VEC3"
    },
    {
      "bufferView": 45,
      "componentType": 5126,
      "count": 3592,
      "type": "VEC2"
    },
    {
      "bufferView": 46,
      "componentType": 5126,
      "count": 3592,
      "type": "VEC2"
    },
    {
      "bufferView": 47,
      "componentType": 5123,
      "count": 3592,
      "type": "VEC4"
    },
    {
      "bufferView": 48,
      "componentType": 5126,
      "count": 3592,
      "type": "VEC4"
    },
    {
      "bufferView": 49,
      "componentType": 5126,
      "count": 2,
      "max": [
        3.2083332538604736
      ],
      "min": [
        0.0416666679084301
      ],
      "type": "SCALAR"
    },
    {
      "bufferView": 50,
      "componentType": 5126,
      "count": 2,
      "type": "VEC3"
    },
    {
      "bufferView": 51,
      "componentType": 5126,
      "count": 2,
      "max": [
        3.2083332538604736
      ],
      "min": [
        0.0416666679084301
      ],
      "type": "SCALAR"
    },
    {
      "bufferView": 52,
      "componentType": 5126,
      "count": 2,
      "type": "VEC4"
    },
    {
      "bufferView": 53,
      "componentType": 5126,
      "count": 2,
      "max": [
        3.2083332538604736
      ],
      "min": [
        0.0416666679084301
      ],
      "type": "SCALAR"
    },
    {
      "bufferView": 54,
      "componentType": 5126,
      "count": 2,
      "type": "VEC3"
    },
    {
      "bufferView": 55,
      "componentType": 5126,
      "count": 77,
      "max": [
        3.2083332538604736
      ],
      "min": [
        0.0416666679084301
      ],
      "type": "SCALAR"
    },
    {
      "bufferView": 56,
      "componentType": 5126,
      "count": 77,
      "type": "VEC4"
    },
    {
      "bufferView": 57,
      "componentType": 5126,
      "count": 2,
      "max": [
        3.2083332538604736
      ],
      "min": [
        0.0416666679084301
      ],
      "type": "SCALAR"
    },
    {
      "bufferView": 58,
      "componentType": 5126,
      "count": 2,
      "type": "VEC3"
    },
    {
      "bufferView": 59,
      "componentType": 5126,
      "count": 2,
      "max": [
        3.2083332538604736
      ],
      "min": [
        0.0416666679084301
      ],
      "type": "SCALAR"
    },
    {
      "bufferView": 60,
      "componentType": 5126,
      "count": 2,
      "type": "VEC4"
    },
    {
      "bufferView": 61,
      "componentType": 5126,
      "count": 2,
      "max": [
        3.2083332538604736
      ],
      "min": [
        0.0416666679084301
      ],
      "type": "SCALAR"
    },
    {
      "bufferView": 62,
      "componentType": 5126,
      "count": 2,
      "type": "VEC3"
    },
    {
      "bufferView": 63,
      "componentType": 5126,
      "count": 77,
      "max": [
        3.2083332538604736
      ],
      "min": [
        0.0416666679084301
      ],
      "type": "SCALAR"
    },
    {
      "bufferView": 64,
      "componentType": 5126,
      "count": 77,
      "type": "VEC4"
    },
    {
      "bufferView": 65,
      "componentType": 5126,
      "count": 1,
      "type": "MAT4"
    }
  ],
  "animations": [
    {
      "channels": [
        {
          "sampler": 0,
          "target": {
            "node": 0,
            "path": "translation"
          }
        },
        {
          "sampler": 1,
          "target": {
            "node": 0,
            "path": "rotation"
          }
        },
        {
          "sampler": 2,
          "target": {
            "node": 0,
            "path": "scale"
          }
        },
        {
          "sampler": 3,
          "target": {
            "node": 2,
            "path": "rotation"
          }
        }
      ],
      "name": "BackToFront",
      "samplers": [
        {
          "input": 49,
          "interpolation": "STEP",
          "output": 50
        },
        {
          "input": 51,
          "interpolation": "STEP",
          "output": 52
        },
        {
          "input": 53,
          "interpolation": "STEP",
          "output": 54
        },
        {
          "input": 55,
          "output": 56
        }
      ]
    },
    {
      "channels": [
        {
          "sampler": 0,
          "target": {
            "node": 0,
            "path": "translation"
          }
        },
        {
          "sampler": 1,
          "target": {
            "node": 0,
            "path": "rotation"
          }
        },
        {
          "sampler": 2,
          "target": {
            "node": 0,
            "path": "scale"
          }
        },
        {
          "sampler": 3,
          "target": {
            "node": 2,
            "path": "rotation"
          }
        }
      ],
      "name": "FrontToBack",
      "samplers": [
        {
          "input": 57,
          "interpolation": "STEP",
          "output": 58
        },
        {
          "input": 59,
          "interpolation": "STEP",
          "output": 60
        },
        {
          "input": 61,
          "interpolation": "STEP",
          "output": 62
        },
        {
          "input": 63,
          "output": 64
        }
      ]
    }
  ],
  "asset": {
    "minVersion": "2.0",
    "version": "2.0"
  },
  "bufferViews": [
    {
      "buffer": 0,
      "byteLength": 1476,
      "target": 34963
    },
    {
      "buffer": 0,
      "byteLength": 3048,
      "byteOffset": 1476,
      "target": 34962
    },
    {
      "buffer": 0,
      "byteLength": 3048,
      "byteOffset": 4524,
      "target": 34962
    },
    {
      "buffer": 0,
      "byteLength": 2032,
      "byteOffset": 7572,
      "target": 34962
    },
    {
      "buffer": 0,
      "byteLength": 2032,
      "byteOffset": 9604,
      "target": 34962
    },
    {
      "buffer": 0,
      "byteLength": 2032,
      "byteOffset": 11636,
      "target": 34962
    },
    {
      "buffer": 0,
      "byteLength": 4064,
      "byteOffset": 13668,
      "target": 34962
    },
    {
      "buffer": 1,
      "byteLength": 9780,
      "target": 34963
    },
    {
      "buffer": 1,
      "byteLength": 15564,
      "byteOffset": 9780,
      "target": 34962
    },
    {
      "buffer": 1,
      "byteLength": 15564,
      "byteOffset": 25344,
      "target": 34962
    },
    {
      "buffer": 1,
      "byteLength": 10376,
      "byteOffset": 40908,
      "target": 34962
    },
    {
      "buffer": 1,
      "byteLength": 10376,
      "byteOffset": 51284,
      "target": 34962
    },
    {
      "buffer": 1,
      "byteLength": 10376,
      "byteOffset": 61660,
      "target": 34962
    },
    {
      "buffer": 1,
      "byteLength": 20752,
      "byteOffset": 72036,
      "target": 34962
    },
    {
      "buffer": 2,
      "byteLength": 264,
      "target": 34963
    },
    {
      "buffer": 2,
      "byteLength": 576,
      "byteOffset": 264,
      "target": 34962
    },
    {
      "buffer": 2,
      "byteLength": 576,
      "byteOffset": 840,
      "target": 34962
    },
    {
      "buffer": 2,
      "byteLength": 384,
      "byteOffset": 1416,
      "target": 34962
    },
    {
      "buffer": 2,
      "byteLength": 384,
      "byteOffset": 1800,
      "target": 34962
    },
    {
      "buffer": 2,
      "byteLength": 384,
      "byteOffset": 2184,
      "target": 34962
    },
    {
      "buffer": 2,
      "byteLength": 768,
      "byteOffset": 2568,
      "target": 34962
    },
    {
      "buffer": 3,
      "byteLength": 1272,
      "target": 34963
    },
    {
      "buffer": 3,
      "byteLength": 3024,
      "byteOffset": 1272,
      "target": 34962
    },
    {
      "buffer": 3,
      "byteLength": 3024,
      "byteOffset": 4296,
      "target": 34962
    },
    {
      "buffer": 3,
      "byteLength": 2016,
      "byteOffset": 7320,
      "target": 34962
    },
    {
      "buffer": 3,
      "byteLength": 2016,
      "byteOffset": 9336,
      "target": 34962
    },
    {
      "buffer": 3,
      "byteLength": 2016,
      "byteOffset": 11352,
      "target": 34962
    },
    {
      "buffer": 3,
      "byteLength": 4032,
      "byteOffset": 13368,
      "target": 34962
    },
    {
      "buffer": 4,
      "byteLength": 540,
      "target": 34963
    },
    {
      "buffer": 4,
      "byteLength": 1152,
      "byteOffset": 540,
      "target": 34962
    },
    {
      "buffer": 4,
      "byteLength": 1152,
      "byteOffset": 1692,
      "target": 34962
    },
    {
      "buffer": 4,
      "byteLength": 768,
      "byteOffset": 2844,
      "target": 34962
    },
    {
      "buffer": 4,
      "byteLength": 768,
      "byteOffset": 3612,
      "target": 34962
    },
    {
      "buffer": 4,
      "byteLength": 768,
      "byteOffset": 4380,
      "target": 34962
    },
    {
      "buffer": 4,
      "byteLength": 1536,
      "byteOffset": 5148,
      "target": 34962
    },
    {
      "buffer": 5,
      "byteLength": 36282,
      "target": 34963
    },
    {
      "buffer": 5,
      "byteLength": 66000,
      "byteOffset": 36284,
      "target": 34962
    },
    {
      "buffer": 5,
      "byteLength": 66000,
      "byteOffset": 102284,
      "target": 34962
    },
    {
      "buffer": 5,
      "byteLength": 44000,
      "byteOffset": 168284,
      "target": 34962
    },
    {
      "buffer": 5,
      "byteLength": 44000,
      "byteOffset": 212284,
      "target": 34962
    },
    {
      "buffer": 5,
      "byteLength": 44000,
      "byteOffset": 256284,
      "target": 34962
    },
    {
      "buffer": 5,
      "byteLength": 88000,
      "byteOffset": 300284,
      "target": 34962
    },
    {
      "buffer": 6,
      "byteLength": 21528,
      "target": 34963
    },
    {
      "buffer": 6,
      "byteLength": 43104,
      "byteOffset": 21528,
      "target": 34962
    },
    {
      "buffer": 6,
      "byteLength": 43104,
      "byteOffset": 64632,
      "target": 34962
    },
    {
      "buffer": 6,
      "byteLength": 28736,
      "byteOffset": 107736,
      "target": 34962
    },
    {
      "buffer": 6,
      "byteLength": 28736,
      "byteOffset": 136472,
      "target": 34962
    },
    {
      "buffer": 6,
      "byteLength": 28736,
      "byteOffset": 165208,
      "target": 34962
    },
    {
      "buffer": 6,
      "byteLength": 57472,
      "byteOffset": 193944,
      "target": 34962
    },
    {
      "buffer": 7,
      "byteLength": 8
    },
    {
      "buffer": 8,
      "byteLength": 24
    },
    {
      "buffer": 9,
      "byteLength": 8
    },
    {
      "buffer": 10,
      "byteLength": 32
    },
    {
      "buffer": 11,
      "byteLength": 8
    },
    {
      "buffer": 12,
      "byteLength": 24
    },
    {
      "buffer": 13,
      "byteLength": 308
    },
    {
      "buffer": 14,
      "byteLength": 1232
    },
    {
      "buffer": 15,
      "byteLength": 8
    },
    {
      "buffer": 16,
      "byteLength": 24
    },
    {
      "buffer": 17,
      "byteLength": 8
    },
    {
      "buffer": 18,
      "byteLength": 32
    },
    {
      "buffer": 19,
      "byteLength": 8
    },
    {
      "buffer": 20,
      "byteLength": 24
    },
    {
      "buffer": 21,
      "byteLength": 308
    },
    {
      "buffer": 22,
      "byteLength": 1232
    },
    {
      "buffer": 23,
      "byteLength": 64
    }
  ],
  "buffers": [
    {
      "byteLength": 17732,
      "uri": "data:application/gltf-buffer;base64,"
    },
    {
      "byteLength": 92788,
      "uri": "data:application/gltf-buffer;base64,"
    },
    {
      "byteLength": 3336,
      "uri": "data:application/gltf-buffer;base64,"
    },
    {
      "byteLength": 17400,
      "uri": "data:application/gltf-buffer;base64,"
    },
    {
      "byteLength": 6684,
      "uri": "data:application/gltf-buffer;base64,"
    },
    {
      "byteLength": 388284,
      "uri": "data:application/gltf-buffer;base64,"
    },
    {
      "byteLength": 251416,
      "uri": "data:application/gltf-buffer;base64,"
    },
    {
      "byteLength": 8,
      "uri": "data:application/gltf-buffer;base64,"
    },
    {
      "byteLength": 24,
      "uri": "data:application/gltf-buffer;base64,"
    },
    {
      "byteLength": 8,
      "uri": "data:application/gltf-buffer;base64,"
    },
    {
      "byteLength": 32,
      "uri": "data:application/gltf-buffer;base64,"
    },
    {
      "byteLength": 8,
      "uri": "data:application/gltf-buffer;base64,"
    },
    {
      "byteLength": 24,
      "uri": "data:application/gltf-buffer;base64,"
    },
    {
      "byteLength": 308,
      "uri": "data:application/gltf-buffer;base64,"
    },
    {
      "byteLength": 1232,
      "uri": "data:application/gltf-buffer;base64,"
    },
    {
      "byteLength": 8,
      "uri": "data:application/gltf-buffer;base64,"
    },
    {
      "byteLength": 24,
      "uri": "data:application/gltf-buffer;base64,"
    },
    {
      "byteLength": 8,
      "uri": "data:application/gltf-buffer;base64,"
    },
    {
      "byteLength": 32,
      "uri": "data:application/gltf-buffer;base64,"
    },
    {
      "byteLength": 8,
      "uri": "data:application/gltf-buffer;base64,"
    },
    {
      "byteLength": 24,
      "uri": "data:application/gltf-buffer;base64,"
    },
    {
      "byteLength": 308,
      "uri": "data:application/gltf-buffer;base64,"
    },
    {
      "byteLength": 1232,
      "uri": "data:application/gltf-buffer;base64,"
    },
    {
      "byteLength": 64,
      "uri": "data:application/gltf-buffer;base64,"
    }
  ],
  "materials": [
    {
      "doubleSided": true,
      "name": "Phone_AO",
      "pbrMetallicRoughness": {
        "baseColorFactor": [
          0,
          0,
          0,
          1
        ],
        "metallicFactor": 0
      }
    },
    {
      "doubleSided": true,
      "name": "Phone_camera",
      "pbrMetallicRoughness": {
        "baseColorFactor": [
          0,
          0,
          0,
          1
        ],
        "roughnessFactor": 0.14787843823432922
      }
    },
    {
      "doubleSided": true,
      "name": "Phone_Body",
      "pbrMetallicRoughness": {
        "baseColorFactor": [
          0,
          0,
          0,
          1
        ],
        "metallicFactor": 0,
        "roughnessFactor": 0.5527864098548889
      }
    },
    {
      "doubleSided": true,
      "name": "Phone_Metal",
      "pbrMetallicRoughness": {
        "baseColorFactor": [
          0.800000011920929,
          0.800000011920929,
          0.800000011920929,
          1
        ],
        "roughnessFactor": 0.12045454978942871
      }
    },
    {
      "alphaMode": "BLEND",
      "doubleSided": true,
      "extensions": {
        "KHR_materials_ior": {
          "ior": 1.7999999523162842
        }
      },
      "name": "Phone_Screen",
      "pbrMetallicRoughness": {
        "baseColorFactor": [
          0.01466972567141056,
          0.01466972567141056,
          0.01466972567141056,
          1
        ],
        "metallicFactor": 0.8786232471466064,
        "roughnessFactor": 0
      }
    }
  ],
  "meshes": [
    {
      "name": "Mesh",
      "primitives": [
        {
          "attributes": {
            "JOINTS_0": 26,
            "NORMAL": 23,
            "POSITION": 22,
            "TEXCOORD_0": 24,
            "TEXCOORD_1": 25,
            "WEIGHTS_0": 27
          },
          "indices": 21,
          "material": 4
        },
        {
          "attributes": {
            "JOINTS_0": 47,
            "NORMAL": 44,
            "POSITION": 43,
            "TEXCOORD_0": 45,
            "TEXCOORD_1": 46,
            "WEIGHTS_0": 48
          },
          "indices": 42,
          "material": 3
        },
        {
          "attributes": {
            "JOINTS_0": 40,
            "NORMAL": 37,
            "POSITION": 36,
            "TEXCOORD_0": 38,
            "TEXCOORD_1": 39,
            "WEIGHTS_0": 41
          },
          "indices": 35,
          "material": 2
        },
        {
          "attributes": {
            "JOINTS_0": 33,
            "NORMAL": 30,
            "POSITION": 29,
            "TEXCOORD_0": 31,
            "TEXCOORD_1": 32,
            "WEIGHTS_0": 34
          },
          "indices": 28,
          "material": 1
        },
        {
          "attributes": {
            "JOINTS_0": 12,
            "NORMAL": 9,
            "POSITION": 8,
            "TEXCOORD_0": 10,
            "TEXCOORD_1": 11,
            "WEIGHTS_0": 13
          },
          "indices": 7,
          "material": 3
        },
        {
          "attributes": {
            "JOINTS_0": 5,
            "NORMAL": 2,
            "POSITION": 1,
            "TEXCOORD_0": 3,
            "TEXCOORD_1": 4,
            "WEIGHTS_0": 6
          },
          "indices": 0,
          "material": 2
        },
        {
          "attributes": {
            "JOINTS_0": 19,
            "NORMAL": 16,
            "POSITION": 15,
            "TEXCOORD_0": 17,
            "TEXCOORD_1": 18,
            "WEIGHTS_0": 20
          },
          "indices": 14,
          "material": 0
        }
      ]
    }
  ],
  "nodes": [
    {
      "extras": {
        "meta_spatial": {
          "entity_id": "Bone"
        }
      },
      "name": "Bone"
    },
    {
      "extras": {
        "meta_spatial": {
          "entity_id": "Phone1"
        }
      },
      "mesh": 0,
      "name": "Phone",
      "skin": 0
    },
    {
      "children": [
        1,
        0
      ],
      "extras": {
        "meta_spatial": {
          "entity_id": "Phone_Rig"
        }
      },
      "name": "Phone_Rig",
      "rotation": [
        -0,
        1,
        -0,
        -4.371138828673793E-8
      ],
      "translation": [
        0.0017216093838214874,
        -0.25,
        0.020000001415610313
      ]
    }
  ],
  "scene": 0,
  "scenes": [
    {
      "nodes": [
        2
      ]
    }
  ],
  "skins": [
    {
      "inverseBindMatrices": 65,
      "joints": [
        0
      ],
      "name": "Phone_Rig"
    }
  ]
}