{
  "accessors": [
    {
      "bufferView": 0,
      "componentType": 5125,
      "count": 14334,
      "type": "SCALAR"
    },
    {
      "bufferView": 1,
      "componentType": 5126,
      "count": 6154,
      "min": [
        -0.41052326560020449,
        -0.37844932079315188,
        -0.39676299691200259
      ],
      "max": [
        0.38157767057418826,
        0.3924892842769623,
        0.40305614471435549
      ],
      "type": "VEC3"
    },
    {
      "bufferView": 2,
      "componentType": 5126,
      "count": 6154,
      "type": "VEC3"
    },
    {
      "bufferView": 3,
      "componentType": 5126,
      "count": 6154,
      "type": "VEC2"
    }
  ],
  "asset": {
    "version": "2.0"
  },
  "bufferViews": [
    {
      "buffer": 0,
      "byteLength": 57336,
      "target": 34963
    },
    {
      "buffer": 0,
      "byteLength": 73848,
      "byteOffset": 57336,
      "target": 34962
    },
    {
      "buffer": 0,
      "byteLength": 73848,
      "byteOffset": 131184,
      "target": 34962
    },
    {
      "buffer": 0,
      "byteLength": 49232,
      "byteOffset": 205032,
      "target": 34962
    }
  ],
  "materials": [
    {
      "name": "Cloud.002",
      "alphaMode": "BLEND",
      "doubleSided": true,
      "pbrMetallicRoughness": {
        "baseColorFactor": [
          0.800000011920929,
          0.800000011920929,
          0.800000011920929,
          1.0
        ],
        "metallicFactor": 0.0,
        "roughnessFactor": 0.8577712774276733,
        "baseColorTexture": {
          "index": 0
        }
      }
    }
  ],
  "meshes": [
    {
      "primitives": [
        {
          "attributes": {
            "NORMAL": 2,
            "POSITION": 1,
            "TEXCOORD_0": 3
          },
          "indices": 0,
          "material": 0,
          "mode": 4
        }
      ],
      "name": "Plane.002"
    }
  ],
  "nodes": [
    {
      "mesh": 0,
      "name": "cloud"
    }
  ],
  "scene": 0,
  "scenes": [
    {
      "nodes": [
        0
      ]
    }
  ],
  "textures": [
    {
      "sampler": 0,
      "source": 0,
      "name": "texture1"
    }
  ],
  "samplers": [
    {
      "name": "sampler0",
      "magFilter": 9729,
      "minFilter": 9987,
      "wrapS": 10497,
      "wrapT": 10497
    }
  ],
  "buffers": [
    {
      "byteLength": 254264,
      "uri": "data:application/octet-stream;base64,"
    }
  ],
  "images": [
    {
      "uri": "85fe04f5a937e81670b43b8bf287116a.png",
      "name": "transparency_1"
    }
  ]
}
