{
  "accessors": [
    {
      "bufferView": 0,
      "componentType": 5125,
      "count": 2880,
      "type": "SCALAR"
    },
    {
      "bufferView": 1,
      "componentType": 5126,
      "count": 559,
      "min": [
        -0.35878700017929079,
        -0.3561389446258545,
        -0.3587867319583893
      ],
      "max": [
        0.3587872087955475,
        0.3561389446258545,
        0.3587869703769684
      ],
      "type": "VEC3"
    },
    {
      "bufferView": 2,
      "componentType": 5126,
      "count": 559,
      "type": "VEC3"
    },
    {
      "bufferView": 3,
      "componentType": 5126,
      "count": 559,
      "type": "VEC2"
    },
    {
      "bufferView": 4,
      "componentType": 5125,
      "count": 80535,
      "type": "SCALAR"
    },
    {
      "bufferView": 5,
      "componentType": 5126,
      "count": 29216,
      "min": [
        -0.3718935549259186,
        -0.3724313974380493,
        -0.3714989125728607
      ],
      "max": [
        0.31352874636650088,
        0.37460073828697207,
        0.3653280436992645
      ],
      "type": "VEC3"
    },
    {
      "bufferView": 6,
      "componentType": 5126,
      "count": 29216,
      "type": "VEC3"
    },
    {
      "bufferView": 7,
      "componentType": 5126,
      "count": 29216,
      "type": "VEC2"
    }
  ],
  "asset": {
    "version": "2.0"
  },
  "bufferViews": [
    {
      "buffer": 0,
      "byteLength": 11520,
      "target": 34963
    },
    {
      "buffer": 0,
      "byteLength": 6708,
      "byteOffset": 11520,
      "target": 34962
    },
    {
      "buffer": 0,
      "byteLength": 6708,
      "byteOffset": 18228,
      "target": 34962
    },
    {
      "buffer": 0,
      "byteLength": 4472,
      "byteOffset": 24936,
      "target": 34962
    },
    {
      "buffer": 0,
      "byteLength": 322140,
      "byteOffset": 29408,
      "target": 34963
    },
    {
      "buffer": 0,
      "byteLength": 350592,
      "byteOffset": 351548,
      "target": 34962
    },
    {
      "buffer": 0,
      "byteLength": 350592,
      "byteOffset": 702140,
      "target": 34962
    },
    {
      "buffer": 0,
      "byteLength": 233728,
      "byteOffset": 1052732,
      "target": 34962
    }
  ],
  "materials": [
    {
      "name": "land",
      "doubleSided": true,
      "normalTexture": {
        "index": 1
      },
      "pbrMetallicRoughness": {
        "metallicFactor": 0.0,
        "roughnessFactor": 0.699999988079071,
        "baseColorTexture": {
          "index": 0
        }
      }
    },
    {
      "name": "ocean",
      "doubleSided": true,
      "normalTexture": {
        "index": 2
      },
      "pbrMetallicRoughness": {
        "baseColorTexture": {
          "index": 4
        },
        "metallicRoughnessTexture": {
          "index": 3
        }
      }
    }
  ],
  "meshes": [
    {
      "primitives": [
        {
          "attributes": {
            "NORMAL": 2,
            "POSITION": 1,
            "TEXCOORD_0": 3
          },
          "indices": 0,
          "material": 1,
          "mode": 4
        },
        {
          "attributes": {
            "NORMAL": 6,
            "POSITION": 5,
            "TEXCOORD_0": 7
          },
          "indices": 4,
          "material": 0,
          "mode": 4
        }
      ],
      "name": "Sphere.003"
    }
  ],
  "nodes": [
    {
      "mesh": 0,
      "name": "Earth"
    }
  ],
  "scene": 0,
  "scenes": [
    {
      "nodes": [
        0
      ]
    }
  ],
  "textures": [
    {
      "sampler": 0,
      "source": 0,
      "name": "texture5"
    },
    {
      "sampler": 0,
      "source": 2,
      "name": "texture4"
    },
    {
      "sampler": 0,
      "source": 3,
      "name": "texture1"
    },
    {
      "sampler": 0,
      "source": 1,
      "name": "texture3"
    },
    {
      "sampler": 0,
      "source": 4,
      "name": "texture2"
    }
  ],
  "samplers": [
    {
      "name": "sampler0",
      "magFilter": 9729,
      "minFilter": 9987,
      "wrapS": 10497,
      "wrapT": 10497
    }
  ],
  "buffers": [
    {
      "byteLength": 1286460,
      "uri": "data:application/octet-stream;base64,"
    }
  ],
  "images": [
    {
      "uri": "d640070a24ff67cc91631ef34caf224f.jpg",
      "name": "Earth_01_Earth_BaseColor"
    },
    {
      "uri": "0783b781a7d301385f3ed1159aa8844f.jpg",
      "name": "ocean_occlusionRoughnessMetallic"
    },
    {
      "uri": "56ad97e6ead24107b433809f63cd98f2.jpg",
      "name": "Earth_01_Earth_Normal"
    },
    {
      "uri": "a16427217c28bebf721d72e128330c13.jpg",
      "name": "earth1_ocean_Normal"
    },
    {
      "uri": "83331e6c0c54cc1972ef6bf18dfa7627.jpg",
      "name": "earth1_ocean_BaseColor"
    }
  ]
}
