{
  "accessors": [
    {
      "bufferView": 0,
      "componentType": 5123,
      "count": 1407,
      "type": "SCALAR"
    },
    {
      "bufferView": 1,
      "componentType": 5126,
      "count": 581,
      "max": [
        -0.08033829182386398,
        0.061400771141052246,
        -0.27236053347587585
      ],
      "min": [
        -0.25546693801879883,
        -0.27004581689834595,
        -0.38790273666381836
      ],
      "type": "VEC3"
    },
    {
      "bufferView": 2,
      "componentType": 5126,
      "count": 581,
      "type": "VEC3"
    },
    {
      "bufferView": 3,
      "componentType": 5126,
      "count": 581,
      "type": "VEC2"
    },
    {
      "bufferView": 4,
      "componentType": 5123,
      "count": 840,
      "type": "SCALAR"
    },
    {
      "bufferView": 5,
      "componentType": 5126,
      "count": 560,
      "max": [
        -0.0952225774526596,
        0.03527182340621948,
        -0.2688254117965698
      ],
      "min": [
        -0.2347397357225418,
        -0.24824243783950806,
        -0.37697717547416687
      ],
      "type": "VEC3"
    },
    {
      "bufferView": 6,
      "componentType": 5126,
      "count": 560,
      "type": "VEC3"
    },
    {
      "bufferView": 7,
      "componentType": 5126,
      "count": 560,
      "type": "VEC2"
    },
    {
      "bufferView": 8,
      "componentType": 5123,
      "count": 6297,
      "type": "SCALAR"
    },
    {
      "bufferView": 9,
      "componentType": 5126,
      "count": 4291,
      "max": [
        0.18061594665050507,
        0.36174482107162476,
        0.40219706296920776
      ],
      "min": [
        -0.23613330721855164,
        0.0011741071939468384,
        0.14778363704681396
      ],
      "type": "VEC3"
    },
    {
      "bufferView": 10,
      "componentType": 5126,
      "count": 4291,
      "type": "VEC3"
    },
    {
      "bufferView": 11,
      "componentType": 5126,
      "count": 4291,
      "type": "VEC2"
    },
    {
      "bufferView": 12,
      "componentType": 5123,
      "count": 3300,
      "type": "SCALAR"
    },
    {
      "bufferView": 13,
      "componentType": 5126,
      "count": 2420,
      "max": [
        0.1338861584663391,
        0.3941704034805298,
        -0.045074060559272766
      ],
      "min": [
        -0.10322701930999756,
        0.25390228629112244,
        -0.29069194197654724
      ],
      "type": "VEC3"
    },
    {
      "bufferView": 14,
      "componentType": 5126,
      "count": 2420,
      "type": "VEC3"
    },
    {
      "bufferView": 15,
      "componentType": 5126,
      "count": 2420,
      "type": "VEC2"
    },
    {
      "bufferView": 16,
      "componentType": 5123,
      "count": 3120,
      "type": "SCALAR"
    },
    {
      "bufferView": 17,
      "componentType": 5126,
      "count": 2080,
      "max": [
        -0.2723011076450348,
        0.1844194531440735,
        0.2604289650917053
      ],
      "min": [
        -0.388389527797699,
        -0.16011232137680054,
        -0.10503137111663818
      ],
      "type": "VEC3"
    },
    {
      "bufferView": 18,
      "componentType": 5126,
      "count": 2080,
      "type": "VEC3"
    },
    {
      "bufferView": 19,
      "componentType": 5126,
      "count": 2080,
      "type": "VEC2"
    },
    {
      "bufferView": 20,
      "componentType": 5123,
      "count": 480,
      "type": "SCALAR"
    },
    {
      "bufferView": 21,
      "componentType": 5126,
      "count": 320,
      "max": [
        0.12765610218048096,
        0.36315861344337463,
        -0.04659014940261841
      ],
      "min": [
        -0.09676560759544373,
        0.251702219247818,
        -0.2704122066497803
      ],
      "type": "VEC3"
    },
    {
      "bufferView": 22,
      "componentType": 5126,
      "count": 320,
      "type": "VEC3"
    },
    {
      "bufferView": 23,
      "componentType": 5126,
      "count": 320,
      "type": "VEC2"
    },
    {
      "bufferView": 24,
      "componentType": 5123,
      "count": 2640,
      "type": "SCALAR"
    },
    {
      "bufferView": 25,
      "componentType": 5126,
      "count": 1760,
      "max": [
        0.1678793728351593,
        0.3468925356864929,
        0.39271244406700134
      ],
      "min": [
        -0.21597576141357422,
        0.022839456796646118,
        0.1462380290031433
      ],
      "type": "VEC3"
    },
    {
      "bufferView": 26,
      "componentType": 5126,
      "count": 1760,
      "type": "VEC3"
    },
    {
      "bufferView": 27,
      "componentType": 5126,
      "count": 1760,
      "type": "VEC2"
    },
    {
      "bufferView": 28,
      "componentType": 5123,
      "count": 5226,
      "type": "SCALAR"
    },
    {
      "bufferView": 29,
      "componentType": 5126,
      "count": 2158,
      "max": [
        -0.27879798412323,
        0.2099510282278061,
        0.2823096215724945
      ],
      "min": [
        -0.4055521488189697,
        -0.18282264471054077,
        -0.12532877922058105
      ],
      "type": "VEC3"
    },
    {
      "bufferView": 30,
      "componentType": 5126,
      "count": 2158,
      "type": "VEC3"
    },
    {
      "bufferView": 31,
      "componentType": 5126,
      "count": 2158,
      "type": "VEC2"
    }
  ],
  "asset": {
    "minVersion": "2.0",
    "version": "2.0"
  },
  "bufferViews": [
    {
      "buffer": 0,
      "byteLength": 2814,
      "target": 34963
    },
    {
      "buffer": 0,
      "byteLength": 6972,
      "byteOffset": 2816,
      "target": 34962
    },
    {
      "buffer": 0,
      "byteLength": 6972,
      "byteOffset": 9788,
      "target": 34962
    },
    {
      "buffer": 0,
      "byteLength": 4648,
      "byteOffset": 16760,
      "target": 34962
    },
    {
      "buffer": 1,
      "byteLength": 1680,
      "target": 34963
    },
    {
      "buffer": 1,
      "byteLength": 6720,
      "byteOffset": 1680,
      "target": 34962
    },
    {
      "buffer": 1,
      "byteLength": 6720,
      "byteOffset": 8400,
      "target": 34962
    },
    {
      "buffer": 1,
      "byteLength": 4480,
      "byteOffset": 15120,
      "target": 34962
    },
    {
      "buffer": 2,
      "byteLength": 12594,
      "target": 34963
    },
    {
      "buffer": 2,
      "byteLength": 51492,
      "byteOffset": 12596,
      "target": 34962
    },
    {
      "buffer": 2,
      "byteLength": 51492,
      "byteOffset": 64088,
      "target": 34962
    },
    {
      "buffer": 2,
      "byteLength": 34328,
      "byteOffset": 115580,
      "target": 34962
    },
    {
      "buffer": 3,
      "byteLength": 6600,
      "target": 34963
    },
    {
      "buffer": 3,
      "byteLength": 29040,
      "byteOffset": 6600,
      "target": 34962
    },
    {
      "buffer": 3,
      "byteLength": 29040,
      "byteOffset": 35640,
      "target": 34962
    },
    {
      "buffer": 3,
      "byteLength": 19360,
      "byteOffset": 64680,
      "target": 34962
    },
    {
      "buffer": 4,
      "byteLength": 6240,
      "target": 34963
    },
    {
      "buffer": 4,
      "byteLength": 24960,
      "byteOffset": 6240,
      "target": 34962
    },
    {
      "buffer": 4,
      "byteLength": 24960,
      "byteOffset": 31200,
      "target": 34962
    },
    {
      "buffer": 4,
      "byteLength": 16640,
      "byteOffset": 56160,
      "target": 34962
    },
    {
      "buffer": 5,
      "byteLength": 960,
      "target": 34963
    },
    {
      "buffer": 5,
      "byteLength": 3840,
      "byteOffset": 960,
      "target": 34962
    },
    {
      "buffer": 5,
      "byteLength": 3840,
      "byteOffset": 4800,
      "target": 34962
    },
    {
      "buffer": 5,
      "byteLength": 2560,
      "byteOffset": 8640,
      "target": 34962
    },
    {
      "buffer": 6,
      "byteLength": 5280,
      "target": 34963
    },
    {
      "buffer": 6,
      "byteLength": 21120,
      "byteOffset": 5280,
      "target": 34962
    },
    {
      "buffer": 6,
      "byteLength": 21120,
      "byteOffset": 26400,
      "target": 34962
    },
    {
      "buffer": 6,
      "byteLength": 14080,
      "byteOffset": 47520,
      "target": 34962
    },
    {
      "buffer": 7,
      "byteLength": 10452,
      "target": 34963
    },
    {
      "buffer": 7,
      "byteLength": 25896,
      "byteOffset": 10452,
      "target": 34962
    },
    {
      "buffer": 7,
      "byteLength": 25896,
      "byteOffset": 36348,
      "target": 34962
    },
    {
      "buffer": 7,
      "byteLength": 17264,
      "byteOffset": 62244,
      "target": 34962
    }
  ],
  "buffers": [
    {
      "byteLength": 21408,
      "uri": "data:application/gltf-buffer;base64,"
    },
    {
      "byteLength": 19600,
      "uri": "data:application/gltf-buffer;base64,"
    },
    {
      "byteLength": 149908,
      "uri": "data:application/gltf-buffer;base64,"
    },
    {
      "byteLength": 84040,
      "uri": "data:application/gltf-buffer;base64,"
    },
    {
      "byteLength": 72800,
      "uri": "data:application/gltf-buffer;base64,"
    },
    {
      "byteLength": 11200,
      "uri": "data:application/gltf-buffer;base64,"
    },
    {
      "byteLength": 61600,
      "uri": "data:application/gltf-buffer;base64,"
    },
    {
      "byteLength": 79508,
      "uri": "data:application/gltf-buffer;base64,"
    }
  ],
  "materials": [
    {
      "doubleSided": true,
      "name": "Material.001",
      "pbrMetallicRoughness": {
        "baseColorFactor": [
          0.06399355083703995,
          0.23847010731697083,
          0.03407543897628784,
          1
        ],
        "metallicFactor": 0,
        "roughnessFactor": 0.7356886267662048
      }
    },
    {
      "doubleSided": true,
      "name": "Material.001",
      "pbrMetallicRoughness": {
        "baseColorFactor": [
          0.06399355083703995,
          0.23847010731697083,
          0.03407543897628784,
          1
        ],
        "metallicFactor": 0,
        "roughnessFactor": 0.7356886267662048
      }
    }
  ],
  "meshes": [
    {
      "name": "Circle.005",
      "primitives": [
        {
          "attributes": {
            "NORMAL": 6,
            "POSITION": 5,
            "TEXCOORD_0": 7
          },
          "indices": 4,
          "material": 1
        },
        {
          "attributes": {
            "NORMAL": 2,
            "POSITION": 1,
            "TEXCOORD_0": 3
          },
          "indices": 0,
          "material": 0
        }
      ]
    },
    {
      "name": "Circle.006",
      "primitives": [
        {
          "attributes": {
            "NORMAL": 22,
            "POSITION": 21,
            "TEXCOORD_0": 23
          },
          "indices": 20,
          "material": 1
        },
        {
          "attributes": {
            "NORMAL": 14,
            "POSITION": 13,
            "TEXCOORD_0": 15
          },
          "indices": 12,
          "material": 0
        }
      ]
    },
    {
      "name": "Circle.007",
      "primitives": [
        {
          "attributes": {
            "NORMAL": 26,
            "POSITION": 25,
            "TEXCOORD_0": 27
          },
          "indices": 24,
          "material": 1
        },
        {
          "attributes": {
            "NORMAL": 10,
            "POSITION": 9,
            "TEXCOORD_0": 11
          },
          "indices": 8,
          "material": 0
        }
      ]
    },
    {
      "name": "Circle.003",
      "primitives": [
        {
          "attributes": {
            "NORMAL": 18,
            "POSITION": 17,
            "TEXCOORD_0": 19
          },
          "indices": 16,
          "material": 1
        },
        {
          "attributes": {
            "NORMAL": 30,
            "POSITION": 29,
            "TEXCOORD_0": 31
          },
          "indices": 28,
          "material": 0
        }
      ]
    }
  ],
  "nodes": [
    {
      "extras": {
        "meta_spatial": {
          "entity_id": "TREE2"
        }
      },
      "mesh": 0,
      "name": "TREE2"
    },
    {
      "extras": {
        "meta_spatial": {
          "entity_id": "TREE4"
        }
      },
      "mesh": 2,
      "name": "TREE4"
    },
    {
      "extras": {
        "meta_spatial": {
          "entity_id": "TREE3"
        }
      },
      "mesh": 1,
      "name": "TREE3"
    },
    {
      "extras": {
        "meta_spatial": {
          "entity_id": "TREE1"
        }
      },
      "mesh": 3,
      "name": "TREE1"
    }
  ],
  "scene": 0,
  "scenes": [
    {
      "nodes": [
        3,
        1,
        2,
        0
      ]
    }
  ]
}