{
  "accessors": [
    {
      "bufferView": 0,
      "componentType": 5123,
      "count": 2640,
      "type": "SCALAR"
    },
    {
      "bufferView": 1,
      "componentType": 5126,
      "count": 1760,
      "min": [
        -0.21597576141357423,
        0.022839456796646119,
        0.1462380290031433
      ],
      "max": [
        0.1678793728351593,
        0.3468925356864929,
        0.39271244406700137
      ],
      "type": "VEC3"
    },
    {
      "bufferView": 2,
      "componentType": 5126,
      "count": 1760,
      "type": "VEC3"
    },
    {
      "bufferView": 3,
      "componentType": 5126,
      "count": 1760,
      "type": "VEC2"
    },
    {
      "bufferView": 4,
      "componentType": 5123,
      "count": 480,
      "type": "SCALAR"
    },
    {
      "bufferView": 5,
      "componentType": 5126,
      "count": 320,
      "min": [
        -0.09676560759544373,
        0.251702219247818,
        -0.2704122066497803
      ],
      "max": [
        0.12765610218048097,
        0.36315861344337466,
        -0.04659014940261841
      ],
      "type": "VEC3"
    },
    {
      "bufferView": 6,
      "componentType": 5126,
      "count": 320,
      "type": "VEC3"
    },
    {
      "bufferView": 7,
      "componentType": 5126,
      "count": 320,
      "type": "VEC2"
    },
    {
      "bufferView": 8,
      "componentType": 5123,
      "count": 1407,
      "type": "SCALAR"
    },
    {
      "bufferView": 9,
      "componentType": 5126,
      "count": 581,
      "min": [
        -0.25546693801879885,
        -0.27004581689834597,
        -0.38790273666381838
      ],
      "max": [
        -0.08033829182386399,
        0.061400771141052249,
        -0.27236053347587588
      ],
      "type": "VEC3"
    },
    {
      "bufferView": 10,
      "componentType": 5126,
      "count": 581,
      "type": "VEC3"
    },
    {
      "bufferView": 11,
      "componentType": 5126,
      "count": 581,
      "type": "VEC2"
    },
    {
      "bufferView": 12,
      "componentType": 5123,
      "count": 3300,
      "type": "SCALAR"
    },
    {
      "bufferView": 13,
      "componentType": 5126,
      "count": 2420,
      "min": [
        -0.10322701930999756,
        0.25390228629112246,
        -0.29069194197654726
      ],
      "max": [
        0.1338861584663391,
        0.3941704034805298,
        -0.045074060559272769
      ],
      "type": "VEC3"
    },
    {
      "bufferView": 14,
      "componentType": 5126,
      "count": 2420,
      "type": "VEC3"
    },
    {
      "bufferView": 15,
      "componentType": 5126,
      "count": 2420,
      "type": "VEC2"
    },
    {
      "bufferView": 16,
      "componentType": 5123,
      "count": 3120,
      "type": "SCALAR"
    },
    {
      "bufferView": 17,
      "componentType": 5126,
      "count": 2080,
      "min": [
        -0.388389527797699,
        -0.16011232137680055,
        -0.10503137111663819
      ],
      "max": [
        -0.2723011076450348,
        0.1844194531440735,
        0.2604289650917053
      ],
      "type": "VEC3"
    },
    {
      "bufferView": 18,
      "componentType": 5126,
      "count": 2080,
      "type": "VEC3"
    },
    {
      "bufferView": 19,
      "componentType": 5126,
      "count": 2080,
      "type": "VEC2"
    },
    {
      "bufferView": 20,
      "componentType": 5123,
      "count": 5226,
      "type": "SCALAR"
    },
    {
      "bufferView": 21,
      "componentType": 5126,
      "count": 2158,
      "min": [
        -0.4055521488189697,
        -0.18282264471054078,
        -0.12532877922058106
      ],
      "max": [
        -0.27879798412323,
        0.2099510282278061,
        0.2823096215724945
      ],
      "type": "VEC3"
    },
    {
      "bufferView": 22,
      "componentType": 5126,
      "count": 2158,
      "type": "VEC3"
    },
    {
      "bufferView": 23,
      "componentType": 5126,
      "count": 2158,
      "type": "VEC2"
    },
    {
      "bufferView": 24,
      "componentType": 5123,
      "count": 840,
      "type": "SCALAR"
    },
    {
      "bufferView": 25,
      "componentType": 5126,
      "count": 560,
      "min": [
        -0.2347397357225418,
        -0.24824243783950807,
        -0.37697717547416689
      ],
      "max": [
        -0.09522257745265961,
        0.03527182340621948,
        -0.2688254117965698
      ],
      "type": "VEC3"
    },
    {
      "bufferView": 26,
      "componentType": 5126,
      "count": 560,
      "type": "VEC3"
    },
    {
      "bufferView": 27,
      "componentType": 5126,
      "count": 560,
      "type": "VEC2"
    },
    {
      "bufferView": 28,
      "componentType": 5123,
      "count": 6297,
      "type": "SCALAR"
    },
    {
      "bufferView": 29,
      "componentType": 5126,
      "count": 4291,
      "min": [
        -0.23613330721855164,
        0.0011741071939468384,
        0.14778363704681397
      ],
      "max": [
        0.18061594665050507,
        0.36174482107162478,
        0.40219706296920779
      ],
      "type": "VEC3"
    },
    {
      "bufferView": 30,
      "componentType": 5126,
      "count": 4291,
      "type": "VEC3"
    },
    {
      "bufferView": 31,
      "componentType": 5126,
      "count": 4291,
      "type": "VEC2"
    }
  ],
  "asset": {
    "version": "2.0"
  },
  "bufferViews": [
    {
      "buffer": 0,
      "byteLength": 5280,
      "target": 34963
    },
    {
      "buffer": 0,
      "byteLength": 21120,
      "byteOffset": 5280,
      "target": 34962
    },
    {
      "buffer": 0,
      "byteLength": 21120,
      "byteOffset": 26400,
      "target": 34962
    },
    {
      "buffer": 0,
      "byteLength": 14080,
      "byteOffset": 47520,
      "target": 34962
    },
    {
      "buffer": 0,
      "byteLength": 960,
      "byteOffset": 61600,
      "target": 34963
    },
    {
      "buffer": 0,
      "byteLength": 3840,
      "byteOffset": 62560,
      "target": 34962
    },
    {
      "buffer": 0,
      "byteLength": 3840,
      "byteOffset": 66400,
      "target": 34962
    },
    {
      "buffer": 0,
      "byteLength": 2560,
      "byteOffset": 70240,
      "target": 34962
    },
    {
      "buffer": 0,
      "byteLength": 2814,
      "byteOffset": 72800,
      "target": 34963
    },
    {
      "buffer": 0,
      "byteLength": 6972,
      "byteOffset": 75616,
      "target": 34962
    },
    {
      "buffer": 0,
      "byteLength": 6972,
      "byteOffset": 82588,
      "target": 34962
    },
    {
      "buffer": 0,
      "byteLength": 4648,
      "byteOffset": 89560,
      "target": 34962
    },
    {
      "buffer": 0,
      "byteLength": 6600,
      "byteOffset": 94208,
      "target": 34963
    },
    {
      "buffer": 0,
      "byteLength": 29040,
      "byteOffset": 100808,
      "target": 34962
    },
    {
      "buffer": 0,
      "byteLength": 29040,
      "byteOffset": 129848,
      "target": 34962
    },
    {
      "buffer": 0,
      "byteLength": 19360,
      "byteOffset": 158888,
      "target": 34962
    },
    {
      "buffer": 0,
      "byteLength": 6240,
      "byteOffset": 178248,
      "target": 34963
    },
    {
      "buffer": 0,
      "byteLength": 24960,
      "byteOffset": 184488,
      "target": 34962
    },
    {
      "buffer": 0,
      "byteLength": 24960,
      "byteOffset": 209448,
      "target": 34962
    },
    {
      "buffer": 0,
      "byteLength": 16640,
      "byteOffset": 234408,
      "target": 34962
    },
    {
      "buffer": 0,
      "byteLength": 10452,
      "byteOffset": 251048,
      "target": 34963
    },
    {
      "buffer": 0,
      "byteLength": 25896,
      "byteOffset": 261500,
      "target": 34962
    },
    {
      "buffer": 0,
      "byteLength": 25896,
      "byteOffset": 287396,
      "target": 34962
    },
    {
      "buffer": 0,
      "byteLength": 17264,
      "byteOffset": 313292,
      "target": 34962
    },
    {
      "buffer": 0,
      "byteLength": 1680,
      "byteOffset": 330556,
      "target": 34963
    },
    {
      "buffer": 0,
      "byteLength": 6720,
      "byteOffset": 332236,
      "target": 34962
    },
    {
      "buffer": 0,
      "byteLength": 6720,
      "byteOffset": 338956,
      "target": 34962
    },
    {
      "buffer": 0,
      "byteLength": 4480,
      "byteOffset": 345676,
      "target": 34962
    },
    {
      "buffer": 0,
      "byteLength": 12594,
      "byteOffset": 350156,
      "target": 34963
    },
    {
      "buffer": 0,
      "byteLength": 51492,
      "byteOffset": 362752,
      "target": 34962
    },
    {
      "buffer": 0,
      "byteLength": 51492,
      "byteOffset": 414244,
      "target": 34962
    },
    {
      "buffer": 0,
      "byteLength": 34328,
      "byteOffset": 465736,
      "target": 34962
    }
  ],
  "materials": [
    {
      "name": "Material.001",
      "doubleSided": true,
      "pbrMetallicRoughness": {
        "baseColorFactor": [
          0.06399355083703995,
          0.23847010731697083,
          0.03407543897628784,
          1.0
        ],
        "metallicFactor": 0.0,
        "roughnessFactor": 0.7356886267662048
      }
    },
    {
      "name": "Material.001",
      "doubleSided": true,
      "pbrMetallicRoughness": {
        "baseColorFactor": [
          0.06399355083703995,
          0.23847010731697083,
          0.03407543897628784,
          1.0
        ],
        "metallicFactor": 0.0,
        "roughnessFactor": 0.7356886267662048
      }
    }
  ],
  "meshes": [
    {
      "primitives": [
        {
          "attributes": {
            "NORMAL": 26,
            "POSITION": 25,
            "TEXCOORD_0": 27
          },
          "indices": 24,
          "material": 1,
          "mode": 4
        },
        {
          "attributes": {
            "NORMAL": 10,
            "POSITION": 9,
            "TEXCOORD_0": 11
          },
          "indices": 8,
          "material": 0,
          "mode": 4
        }
      ],
      "name": "Circle.005"
    },
    {
      "primitives": [
        {
          "attributes": {
            "NORMAL": 6,
            "POSITION": 5,
            "TEXCOORD_0": 7
          },
          "indices": 4,
          "material": 1,
          "mode": 4
        },
        {
          "attributes": {
            "NORMAL": 14,
            "POSITION": 13,
            "TEXCOORD_0": 15
          },
          "indices": 12,
          "material": 0,
          "mode": 4
        }
      ],
      "name": "Circle.006"
    },
    {
      "primitives": [
        {
          "attributes": {
            "NORMAL": 2,
            "POSITION": 1,
            "TEXCOORD_0": 3
          },
          "indices": 0,
          "material": 1,
          "mode": 4
        },
        {
          "attributes": {
            "NORMAL": 30,
            "POSITION": 29,
            "TEXCOORD_0": 31
          },
          "indices": 28,
          "material": 0,
          "mode": 4
        }
      ],
      "name": "Circle.007"
    },
    {
      "primitives": [
        {
          "attributes": {
            "NORMAL": 18,
            "POSITION": 17,
            "TEXCOORD_0": 19
          },
          "indices": 16,
          "material": 1,
          "mode": 4
        },
        {
          "attributes": {
            "NORMAL": 22,
            "POSITION": 21,
            "TEXCOORD_0": 23
          },
          "indices": 20,
          "material": 0,
          "mode": 4
        }
      ],
      "name": "Circle.003"
    }
  ],
  "nodes": [
    {
      "mesh": 0,
      "extras": {
        "meta_spatial": {
          "entity_id": "TREE2"
        }
      },
      "name": "TREE2"
    },
    {
      "mesh": 1,
      "extras": {
        "meta_spatial": {
          "entity_id": "TREE3"
        }
      },
      "name": "TREE3"
    },
    {
      "mesh": 2,
      "extras": {
        "meta_spatial": {
          "entity_id": "TREE4"
        }
      },
      "name": "TREE4"
    },
    {
      "mesh": 3,
      "extras": {
        "meta_spatial": {
          "entity_id": "TREE1"
        }
      },
      "name": "TREE1"
    }
  ],
  "scene": 0,
  "scenes": [
    {
      "nodes": [
        3,
        2,
        1,
        0
      ]
    }
  ],
  "buffers": [
    {
      "byteLength": 500064,
      "uri": "data:application/octet-stream;base64,"
    }
  ]
}
