{
  "accessors": [
    {
      "bufferView": 0,
      "componentType": 5125,
      "count": 495,
      "type": "SCALAR"
    },
    {
      "bufferView": 1,
      "componentType": 5126,
      "count": 369,
      "min": [
        -665.57177734375,
        -492.6697082519531,
        -203.0502166748047
      ],
      "max": [
        665.5731201171875,
        660.136474609375,
        99.9999771118164
      ],
      "type": "VEC3"
    },
    {
      "bufferView": 2,
      "componentType": 5126,
      "count": 369,
      "type": "VEC3"
    }
  ],
  "asset": {
    "version": "2.0"
  },
  "bufferViews": [
    {
      "buffer": 0,
      "byteLength": 1980,
      "target": 34963
    },
    {
      "buffer": 1,
      "byteLength": 4428,
      "target": 34962
    },
    {
      "buffer": 1,
      "byteLength": 4428,
      "byteOffset": 4428,
      "target": 34962
    }
  ],
  "materials": [
    {
      "name": "envCollisionMesh_mat",
      "doubleSided": true,
      "pbrMetallicRoughness": {
        "baseColorFactor": [
          0.18000000715255738,
          0.18000000715255738,
          0.18000000715255738,
          1.0
        ],
        "metallicFactor": 0.0,
        "roughnessFactor": 0.5
      }
    }
  ],
  "meshes": [
    {
      "primitives": [
        {
          "attributes": {
            "NORMAL": 2,
            "POSITION": 1
          },
          "indices": 0,
          "material": 0,
          "mode": 4
        }
      ],
      "name": "Mesh.010"
    }
  ],
  "nodes": [
    {
      "rotation": [
        0.7071068286895752,
        0.0,
        0.0,
        0.7071068286895752
      ],
      "scale": [
        0.009999999776482582,
        0.009999999776482582,
        0.009999999776482582
      ],
      "mesh": 0,
      "name": "envCollisionMesh_geo"
    }
  ],
  "scene": 0,
  "scenes": [
    {
      "nodes": [
        0
      ]
    }
  ],
  "buffers": [
    {
      "byteLength": 1980,
      "uri": "data:application/octet-stream;base64,"
    },
    {
      "byteLength": 8856,
      "uri": "data:application/octet-stream;base64,"
    }
  ]
}
