{
  "accessors": [
    {
      "bufferView": 0,
      "componentType": 5125,
      "count": 5268,
      "type": "SCALAR"
    },
    {
      "bufferView": 1,
      "componentType": 5126,
      "count": 956,
      "min": [
        -0.12297829985618592,
        -0.12297925353050232,
        -0.12284840643405914
      ],
      "max": [
        0.1229783445596695,
        0.12297868728637696,
        0.12284824997186661
      ],
      "type": "VEC3"
    },
    {
      "bufferView": 2,
      "componentType": 5126,
      "count": 956,
      "type": "VEC3"
    },
    {
      "bufferView": 3,
      "componentType": 5126,
      "count": 956,
      "type": "VEC2"
    }
  ],
  "asset": {
    "version": "2.0"
  },
  "bufferViews": [
    {
      "buffer": 0,
      "byteLength": 21072,
      "target": 34963
    },
    {
      "buffer": 1,
      "byteLength": 11472,
      "target": 34962
    },
    {
      "buffer": 1,
      "byteLength": 11472,
      "byteOffset": 11472,
      "target": 34962
    },
    {
      "buffer": 1,
      "byteLength": 7648,
      "byteOffset": 22944,
      "target": 34962
    }
  ],
  "materials": [
    {
      "name": "BasketBall",
      "doubleSided": true,
      "normalTexture": {
        "index": 0
      },
      "occlusionTexture": {
        "index": 1
      },
      "pbrMetallicRoughness": {
        "baseColorTexture": {
          "index": 2
        },
        "metallicRoughnessTexture": {
          "index": 1
        }
      }
    }
  ],
  "meshes": [
    {
      "primitives": [
        {
          "attributes": {
            "NORMAL": 2,
            "POSITION": 1,
            "TEXCOORD_0": 3
          },
          "indices": 0,
          "material": 0,
          "mode": 4
        }
      ],
      "name": "BasketBall_geo"
    }
  ],
  "nodes": [
    {
      "mesh": 0,
      "name": "BasketBall"
    }
  ],
  "scene": 0,
  "scenes": [
    {
      "nodes": [
        0
      ]
    }
  ],
  "textures": [
    {
      "source": 0,
      "name": "texture1"
    },
    {
      "source": 1,
      "name": "texture2"
    },
    {
      "source": 2,
      "name": "texture3"
    }
  ],
  "buffers": [
    {
      "byteLength": 21072,
      "uri": "data:application/octet-stream;base64,"
    },
    {
      "byteLength": 30592,
      "uri": "data:application/octet-stream;base64,"
    }
  ],
  "images": [
    {
      "uri": "e15bb4b1fad78660bd8613c38d10723c.png",
      "name": "BasketBall_Normal"
    },
    {
      "uri": "8f0aa2c719556e8ddfff5a21a0b7a125.png",
      "name": "BasketBall_ORM"
    },
    {
      "uri": "c2810ed5e72470d4661b8b6812657d12.png",
      "name": "BasketBall_Color"
    }
  ]
}
