{
  "accessors": [
    {
      "bufferView": 0,
      "componentType": 5125,
      "count": 46752,
      "type": "SCALAR"
    },
    {
      "bufferView": 1,
      "componentType": 5126,
      "count": 12696,
      "min": [
        -862.1762084960938,
        -704.1123046875,
        -101.70378112792969
      ],
      "max": [
        862.17626953125,
        871.5792236328125,
        117.95475769042969
      ],
      "type": "VEC3"
    },
    {
      "bufferView": 2,
      "componentType": 5126,
      "count": 12696,
      "type": "VEC3"
    },
    {
      "bufferView": 3,
      "componentType": 5126,
      "count": 12696,
      "type": "VEC2"
    },
    {
      "bufferView": 4,
      "componentType": 5126,
      "count": 12696,
      "type": "VEC2"
    },
    {
      "bufferView": 5,
      "componentType": 5125,
      "count": 6336,
      "type": "SCALAR"
    },
    {
      "bufferView": 6,
      "componentType": 5126,
      "count": 2103,
      "min": [
        -592.0802001953125,
        -430.3111572265625,
        -423.6421203613281
      ],
      "max": [
        592.0800170898438,
        632.0118408203125,
        -348.785400390625
      ],
      "type": "VEC3"
    },
    {
      "bufferView": 7,
      "componentType": 5126,
      "count": 2103,
      "type": "VEC3"
    },
    {
      "bufferView": 8,
      "componentType": 5126,
      "count": 2103,
      "type": "VEC2"
    },
    {
      "bufferView": 9,
      "componentType": 5126,
      "count": 2103,
      "type": "VEC2"
    },
    {
      "bufferView": 10,
      "componentType": 5125,
      "count": 1356,
      "type": "SCALAR"
    },
    {
      "bufferView": 11,
      "componentType": 5126,
      "count": 543,
      "min": [
        -186.5149383544922,
        -276.18121337890627,
        -201.1901092529297
      ],
      "max": [
        295.15216064453127,
        44.99232482910156,
        2.0000178813934328
      ],
      "type": "VEC3"
    },
    {
      "bufferView": 12,
      "componentType": 5126,
      "count": 543,
      "type": "VEC3"
    },
    {
      "bufferView": 13,
      "componentType": 5126,
      "count": 543,
      "type": "VEC2"
    },
    {
      "bufferView": 14,
      "componentType": 5126,
      "count": 543,
      "type": "VEC2"
    }
  ],
  "asset": {
    "version": "2.0"
  },
  "bufferViews": [
    {
      "buffer": 0,
      "byteLength": 187008,
      "target": 34963
    },
    {
      "buffer": 1,
      "byteLength": 152352,
      "target": 34962
    },
    {
      "buffer": 1,
      "byteLength": 152352,
      "byteOffset": 152352,
      "target": 34962
    },
    {
      "buffer": 1,
      "byteLength": 101568,
      "byteOffset": 304704,
      "target": 34962
    },
    {
      "buffer": 1,
      "byteLength": 101568,
      "byteOffset": 406272,
      "target": 34962
    },
    {
      "buffer": 2,
      "byteLength": 25344,
      "target": 34963
    },
    {
      "buffer": 3,
      "byteLength": 25236,
      "target": 34962
    },
    {
      "buffer": 3,
      "byteLength": 25236,
      "byteOffset": 25236,
      "target": 34962
    },
    {
      "buffer": 3,
      "byteLength": 16824,
      "byteOffset": 50472,
      "target": 34962
    },
    {
      "buffer": 3,
      "byteLength": 16824,
      "byteOffset": 67296,
      "target": 34962
    },
    {
      "buffer": 4,
      "byteLength": 5424,
      "target": 34963
    },
    {
      "buffer": 5,
      "byteLength": 6516,
      "target": 34962
    },
    {
      "buffer": 5,
      "byteLength": 6516,
      "byteOffset": 6516,
      "target": 34962
    },
    {
      "buffer": 5,
      "byteLength": 4344,
      "byteOffset": 13032,
      "target": 34962
    },
    {
      "buffer": 5,
      "byteLength": 4344,
      "byteOffset": 17376,
      "target": 34962
    }
  ],
  "materials": [
    {
      "name": "floorBake_mat",
      "doubleSided": true,
      "pbrMetallicRoughness": {
        "metallicFactor": 0.0,
        "roughnessFactor": 0.5,
        "baseColorTexture": {
          "index": 0,
          "texCoord": 1
        }
      }
    },
    {
      "name": "ceilingBake_mat",
      "doubleSided": true,
      "pbrMetallicRoughness": {
        "metallicFactor": 0.0,
        "roughnessFactor": 0.5,
        "baseColorTexture": {
          "index": 1,
          "texCoord": 1
        }
      }
    },
    {
      "name": "deskScreenBake_mat",
      "doubleSided": true,
      "pbrMetallicRoughness": {
        "metallicFactor": 0.0,
        "roughnessFactor": 0.5,
        "baseColorTexture": {
          "index": 2,
          "texCoord": 1
        }
      }
    }
  ],
  "meshes": [
    {
      "primitives": [
        {
          "attributes": {
            "NORMAL": 2,
            "POSITION": 1,
            "TEXCOORD_0": 3,
            "TEXCOORD_1": 4
          },
          "indices": 0,
          "material": 0,
          "mode": 4
        }
      ],
      "name": "Mesh.037"
    },
    {
      "primitives": [
        {
          "attributes": {
            "NORMAL": 7,
            "POSITION": 6,
            "TEXCOORD_0": 8,
            "TEXCOORD_1": 9
          },
          "indices": 5,
          "material": 1,
          "mode": 4
        }
      ],
      "name": "Mesh.036"
    },
    {
      "primitives": [
        {
          "attributes": {
            "NORMAL": 12,
            "POSITION": 11,
            "TEXCOORD_0": 13,
            "TEXCOORD_1": 14
          },
          "indices": 10,
          "material": 2,
          "mode": 4
        }
      ],
      "name": "Mesh.034"
    }
  ],
  "nodes": [
    {
      "rotation": [
        0.70710688829422,
        0.0,
        0.0,
        0.7071066498756409
      ],
      "scale": [
        0.009999999776482582,
        0.010000000707805157,
        0.010000000707805157
      ],
      "mesh": 0,
      "name": "floorBase_geo.002"
    },
    {
      "rotation": [
        0.70710688829422,
        0.0,
        0.0,
        0.7071066498756409
      ],
      "scale": [
        0.009999999776482582,
        0.010000000707805157,
        0.010000000707805157
      ],
      "mesh": 1,
      "name": "ceiling_geo.002"
    },
    {
      "translation": [
        0.0,
        0.01999998837709427,
        0.0
      ],
      "rotation": [
        0.6830126643180847,
        0.1830126792192459,
        -0.1830126792192459,
        0.6830127239227295
      ],
      "scale": [
        0.009999999776482582,
        0.009999999776482582,
        0.009999998845160008
      ],
      "mesh": 2,
      "name": "backWall_geo"
    }
  ],
  "scene": 0,
  "scenes": [
    {
      "nodes": [
        2,
        1,
        0
      ]
    }
  ],
  "textures": [
    {
      "source": 0,
      "name": "texture3"
    },
    {
      "source": 1,
      "name": "texture2"
    },
    {
      "source": 2,
      "name": "texture1"
    }
  ],
  "buffers": [
    {
      "byteLength": 187008,
      "uri": "data:application/octet-stream;base64,"
    },
    {
      "byteLength": 507840,
      "uri": "data:application/octet-stream;base64,"
    },
    {
      "byteLength": 25344,
      "uri": "data:application/octet-stream;base64,"
    },
    {
      "byteLength": 84120,
      "uri": "data:application/octet-stream;base64,"
    },
    {
      "byteLength": 5424,
      "uri": "data:application/octet-stream;base64,"
    },
    {
      "byteLength": 21720,
      "uri": "data:application/octet-stream;base64,"
    }
  ],
  "images": [
    {
      "uri": "391c375e819ad25f777dfca867d8da1e.jpg",
      "name": "floorScreenBake_beauty"
    },
    {
      "uri": "fd7a877aa22c9400029fa59d9e4c8375.jpg",
      "name": "ceilingBake_beauty"
    },
    {
      "uri": "f09e4c82bace718286bde03926cdf80b.jpg",
      "name": "deskScreenBake_beauty"
    }
  ]
}
